<?xml version="1.0" standalone="no"?>
<!DOCTYPE svg PUBLIC "-//W3C//DTD SVG 20010904//EN"
 "http://www.w3.org/TR/2001/REC-SVG-20010904/DTD/svg10.dtd">
<svg version="1.0" xmlns="http://www.w3.org/2000/svg"
 width="500.000000pt" height="500.000000pt" viewBox="0 0 500.000000 500.000000"
 preserveAspectRatio="xMidYMid meet">

<g transform="translate(0.000000,500.000000) scale(0.100000,-0.100000)"
fill="#000000" stroke="none">
<path d="M1867 3496 c-82 -30 -97 -65 -107 -246 -4 -93 -12 -145 -23 -166 -16
-31 -53 -54 -87 -54 -18 0 -20 -7 -20 -63 l0 -64 38 -11 c21 -7 46 -20 55 -30
23 -26 36 -95 37 -197 1 -114 11 -160 46 -196 32 -33 65 -45 152 -53 l62 -6 0
70 0 70 -38 0 c-69 0 -75 11 -83 157 -8 144 -20 186 -69 227 l-33 27 32 29
c50 46 63 90 70 232 4 73 12 133 18 139 6 6 32 14 57 16 l46 6 0 63 0 64 -57
0 c-32 -1 -75 -7 -96 -14z"/>
<path d="M2980 3446 l0 -66 39 0 c60 0 68 -14 75 -137 10 -157 21 -198 68
-244 l39 -38 -24 -15 c-50 -33 -69 -88 -80 -230 -11 -147 -18 -163 -76 -168
l-36 -3 -3 -67 c-2 -51 0 -68 10 -68 63 2 152 21 176 39 49 35 61 75 71 233 9
165 19 191 82 210 l39 11 0 64 c0 50 -3 63 -15 63 -26 0 -74 29 -86 53 -7 12
-16 86 -20 163 -8 161 -21 201 -76 235 -25 16 -57 24 -109 27 l-74 5 0 -67z"/>
<path d="M2745 2231 c-7 -12 12 -24 25 -16 11 7 4 25 -10 25 -5 0 -11 -4 -15
-9z"/>
<path d="M1796 2164 c-34 -33 -5 -94 45 -94 9 0 22 -7 29 -16 11 -12 10 -18
-3 -31 -15 -15 -18 -15 -35 0 -25 23 -54 22 -50 0 7 -38 88 -52 125 -22 7 6
13 24 13 40 0 25 -7 33 -47 52 -51 24 -63 50 -25 55 12 2 22 -1 22 -7 0 -6 11
-11 25 -11 14 0 25 4 25 9 0 21 -34 41 -70 41 -22 0 -45 -7 -54 -16z"/>
<path d="M1976 2161 c-10 -11 -16 -29 -14 -42 3 -22 10 -28 63 -51 16 -7 31
-20 33 -29 4 -23 -30 -34 -44 -15 -10 15 -54 23 -54 10 0 -42 73 -67 116 -40
19 14 24 24 22 48 -3 31 -8 36 -63 60 -35 16 -40 42 -7 46 12 2 22 -1 22 -7 0
-6 11 -11 25 -11 15 0 25 6 25 15 0 36 -95 48 -124 16z"/>
<path d="M2150 2080 l0 -100 55 0 c42 0 55 3 55 15 0 10 -11 15 -35 15 -32 0
-35 2 -35 30 0 27 3 30 30 30 20 0 30 5 30 15 0 10 -10 15 -30 15 -25 0 -30 4
-30 25 0 22 4 25 35 25 24 0 35 5 35 15 0 12 -13 15 -55 15 l-55 0 0 -100z"/>
<path d="M2310 2080 c0 -93 1 -100 20 -100 17 0 19 8 22 68 l3 67 44 -67 c28
-45 50 -68 62 -68 17 0 19 9 19 100 0 93 -1 100 -20 100 -16 0 -19 -8 -22 -62
l-3 -63 -40 63 c-30 46 -46 62 -62 62 -22 0 -23 -3 -23 -100z"/>
<path d="M2530 2080 l0 -100 33 0 c51 0 105 19 122 43 8 12 15 40 15 63 0 35
-5 47 -31 68 -25 21 -41 26 -85 26 l-54 0 0 -100z m112 53 c21 -19 24 -71 6
-96 -7 -9 -28 -20 -45 -23 l-33 -6 0 71 c0 70 0 71 27 71 14 0 35 -7 45 -17z"/>
<path d="M2740 2080 c0 -93 1 -100 20 -100 19 0 20 7 20 100 0 93 -1 100 -20
100 -19 0 -20 -7 -20 -100z"/>
<path d="M2820 2080 l0 -100 25 0 c24 0 25 2 25 67 l0 68 45 -68 c31 -45 52
-67 65 -67 19 0 20 7 20 100 0 93 -1 100 -20 100 -18 0 -20 -7 -20 -60 0 -33
-3 -60 -7 -60 -5 0 -25 27 -47 60 -29 46 -44 60 -62 60 -24 0 -24 -1 -24 -100z"/>
<path d="M3073 2162 c-77 -59 -20 -192 76 -178 33 5 71 31 71 48 0 11 -48 10
-55 -2 -3 -5 -16 -10 -29 -10 -56 0 -78 85 -30 117 24 16 28 16 59 -1 18 -10
41 -16 51 -14 17 3 16 6 -8 31 -33 33 -99 37 -135 9z"/>
</g>
</svg>
